<svg xmlns:xlink="http://www.w3.org/1999/xlink" width="29" xmlns="http://www.w3.org/2000/svg" height="30" id="screenshot-64e448d0-cad5-11ec-9d7b-05303350ebef" viewBox="0 0 29 30" style="-webkit-print-color-adjust: exact;" fill="none" version="1.1"><g id="shape-64e448d0-cad5-11ec-9d7b-05303350ebef" width="24" height="24" rx="0" ry="0" style="fill: rgb(0, 0, 0);"><g id="shape-64e644a0-cad5-11ec-9d7b-05303350ebef"><g id="fills-64e644a0-cad5-11ec-9d7b-05303350ebef"><path fill="none" rx="0" ry="0" d="M0,0L29,0L29,30L0,30ZZ" style="fill: none;"/></g></g><g id="shape-64eb74c0-cad5-11ec-9d7b-05303350ebef"><g id="fills-64eb74c0-cad5-11ec-9d7b-05303350ebef"><path fill="rgba(242,242,248,1)" rx="0" ry="0" d="M11.25533333333351,14.571428571428442C11.955333333333442,14.571428571428442,12.522333333333563,15.149999999999864,12.509500000000003,15.857142857142662C12.509500000000003,16.564285714285234,11.956500000000005,17.142857142856883,11.25533333333351,17.142857142856883C10.56699999999978,17.142857142856883,10.000000000000114,16.564285714285234,10.000000000000114,15.857142857142662C10.000000000000114,15.149999999999864,10.55416666666656,14.571428571428442,11.25533333333351,14.571428571428442ZZM15.744666666666717,14.571428571428442C16.445833333333212,14.571428571428442,17,15.149999999999864,17,15.857142857142662C17,16.564285714285234,16.445833333333212,17.142857142856883,15.744666666666717,17.142857142856883C15.056333333333328,17.142857142856883,14.490500000000111,16.564285714285234,14.490500000000111,15.857142857142662C14.490500000000111,15.149999999999864,15.043499999999767,14.571428571428442,15.744666666666717,14.571428571428442ZZM21.53949999999986,3C22.896333333333246,3,24,4.241999999999734,24,5.780999999999949L24,30L21.420499999999947,27.43499999999949L19.967999999999847,25.922999999999774L18.431500000000028,24.315857142856657L19.068500000000085,26.81399999999985L5.460500000000025,26.81399999999985C4.103666666666754,26.81399999999985,3,25.57199999999966,3,24.0329999999999L3,5.780999999999949C3,4.241999999999734,4.103666666666754,3,5.460500000000025,3L21.53949999999986,3ZZM16.907833333333656,20.630999999999403C19.55966666666677,20.5371428571425,20.58050000000003,18.578999999999724,20.58050000000003,18.578999999999724C20.58050000000003,14.231999999999971,18.851499999999987,10.707857142856938,18.851499999999987,10.707857142856938C17.1248333333333,9.251142857142668,15.479833333333204,9.290999999999713,15.479833333333204,9.290999999999713L15.311833333333425,9.506999999999834C17.35233333333349,10.208999999999833,18.29966666666678,11.222142857142899,18.29966666666678,11.222142857142899C17.18557945324642,10.530413109812343,15.957746726594223,10.089861832475435,14.6876666666667,9.926142857142622C13.882011489089791,9.825862013527058,13.068253505971597,9.834497492698574,12.264499999999998,9.951857142856625C12.19216666666648,9.951857142856625,12.131500000000187,9.965999999999667,12.060333333333347,9.978857142857123C11.640333333333274,10.019999999999982,10.619500000000016,10.19485714285679,9.336166666666713,10.829999999999472C8.892833333333442,11.05885714285705,8.627999999999929,11.222142857142899,8.627999999999929,11.222142857142899C8.627999999999929,11.222142857142899,9.624333333333311,10.154999999999973,11.783833333333405,9.45299999999952L11.663666666666586,9.290999999999713C11.663666666666586,9.290999999999713,10.019833333333281,9.251142857142668,8.291999999999803,10.709142857142524C8.291999999999803,10.709142857142524,6.564166666666665,14.231999999999971,6.564166666666665,18.578999999999724C6.564166666666665,18.578999999999724,7.572166666666703,20.535857142856912,10.22400000000016,20.630999999999403C10.22400000000016,20.630999999999403,10.667333333333318,20.02414285714258,11.028999999999996,19.51114285714266C9.50416666666672,18.996857142857152,8.928999999999974,17.91685714285677,8.928999999999974,17.91685714285677C8.928999999999974,17.91685714285677,9.048000000000002,18.011999999999716,9.263833333333423,18.14699999999948C9.27550000000008,18.159857142857163,9.287166666666735,18.173999999999523,9.31166666666661,18.186857142856752C9.34783333333337,18.215142857142382,9.384000000000015,18.22799999999961,9.420166666666773,18.254999999999654C9.720000000000027,18.44399999999996,10.019833333333281,18.591857142856725,10.295166666666773,18.713999999999942C10.787499999999909,18.92999999999938,11.375499999999874,19.14599999999973,12.060333333333347,19.29514285714231C13.086205687288043,19.51674866214489,14.140980250417215,19.52111204285302,15.168333333333294,19.307999999999765C15.766737054127475,19.19029611268661,16.35055548876585,18.99568197675262,16.907833333333656,18.728142857142302C17.327833333333274,18.55199999999968,17.795666666666648,18.294857142856927,18.28800000000001,17.93100000000004C18.28800000000001,17.93100000000004,17.688333333333276,19.03800000000001,16.115666666666584,19.538142857142475C16.476166666666813,20.051142857142622,16.909000000000106,20.630999999999403,16.907833333333656,20.630999999999403ZZ" style="fill: rgb(242, 242, 248);"/></g></g></g></svg>
