<svg xmlns:xlink="http://www.w3.org/1999/xlink" width="29" xmlns="http://www.w3.org/2000/svg" height="30" id="screenshot-d38fd8e0-cad4-11ec-9d7b-05303350ebef" viewBox="0 0 29 30" style="-webkit-print-color-adjust: exact;" fill="none" version="1.1"><g id="shape-d38fd8e0-cad4-11ec-9d7b-05303350ebef" width="24" height="24" rx="0" ry="0" style="fill: rgb(0, 0, 0);"><g id="shape-d3918690-cad4-11ec-9d7b-05303350ebef"><g id="fills-d3918690-cad4-11ec-9d7b-05303350ebef"><path fill="none" rx="0" ry="0" d="M0,0L29,0L29,30L0,30ZZ" style="fill: none;"/></g></g><g id="shape-d3950900-cad4-11ec-9d7b-05303350ebef"><g id="fills-d3950900-cad4-11ec-9d7b-05303350ebef"><path fill="rgba(242,242,248,1)" rx="0" ry="0" d="M15,3C8.370000000000118,3,3,8.505962130370335,3,15.303825989654342C2.997208595653092,20.60112573526999,6.30348179898192,25.304865119035867,11.20559999999773,26.977696088637686C11.80560000000014,27.08473937474855,12.030000000000086,26.71562459505867,12.030000000000086,26.392033971530964C12.030000000000086,26.100433295576067,12.014400000000137,25.13212219019033,12.014400000000137,24.101061572257095C9,24.670728715578434,8.220000000000255,23.348067421690303,7.980000000000018,22.655362018472715C7.8443999999999505,22.301011829970776,7.260000000000105,21.20966246468811,6.75,20.916831406134406C6.330000000000041,20.686749860128202,5.730000000000018,20.11708271680709,6.734400000000164,20.10231812561915C7.679999999999836,20.086323151832858,8.354400000000055,20.994345509869618,8.580000000000041,21.363460289558816C9.660000000000082,23.223798779194567,11.385600000000068,22.70088617463466,12.074400000000196,22.378525933705532C12.179999999999836,21.578777244378216,12.494400000000041,21.041100048630142,12.840000000000146,20.733504398888726C10.169999999999959,20.42590874914731,7.3799999999999955,19.364088566240298,7.3799999999999955,14.657875125197279C7.3799999999999955,13.319218857522856,7.8443999999999505,12.21310490105293,8.6099999999999,11.350606699178343C8.490000000000009,11.043011049436927,8.070000000000164,9.78186888549726,8.72999999999979,8.09009281191993C8.72999999999979,8.09009281191993,9.73440000000005,7.767732570990802,12.030000000000086,9.352465358458403C13.006875447840685,9.074473582698147,14.016199416839868,8.934557959003541,15.030000000000086,8.936596040007998C16.049999999999955,8.936596040007998,17.069999999999936,9.074398891092187,18.029999999999973,9.35123497585937C20.324400000000196,7.751737597204283,21.33000000000004,8.091323194518736,21.33000000000004,8.091323194518736C21.99000000000001,9.783099268096294,21.569999999999936,11.04424143203596,21.449999999999932,11.351837081777376C22.21440000000007,12.21310490105293,22.67999999999995,13.304454266335142,22.67999999999995,14.657875125197279C22.67999999999995,19.38008354002659,19.875600000000077,20.42590874914731,17.205600000000118,20.733504398888726C17.6400000000001,21.117383769766093,18.01559999999995,21.8556133291454,18.01559999999995,23.009712206974655C18.01559999999995,24.654733741791915,18,25.977395035679365,18,26.39326435412977C18,26.71562459505867,18.2256000000001,27.09950396593581,18.82560000000001,26.976465706039107C23.709880906141734,25.285639492246446,26.99860392398,20.589505352223114,27,15.303825989654342C27,8.505962130370335,21.629999999999995,3,15,3ZZ" style="fill: rgb(242, 242, 248);"/></g></g></g></svg>
