<svg xmlns:xlink="http://www.w3.org/1999/xlink" width="29" xmlns="http://www.w3.org/2000/svg" height="30" id="screenshot-fe79dec0-cad4-11ec-9d7b-05303350ebef" viewBox="0 0 29 30" style="-webkit-print-color-adjust: exact;" fill="none" version="1.1"><g id="shape-fe79dec0-cad4-11ec-9d7b-05303350ebef" width="24" height="24" rx="0" ry="0" style="fill: rgb(0, 0, 0);"><g id="shape-fe7bb380-cad4-11ec-9d7b-05303350ebef"><g id="fills-fe7bb380-cad4-11ec-9d7b-05303350ebef"><path fill="none" rx="0" ry="0" d="M0,0L29,0L29,30L0,30ZZ" style="fill: none;"/></g></g><g id="shape-fe7dd660-cad4-11ec-9d7b-05303350ebef"><g id="fills-fe7dd660-cad4-11ec-9d7b-05303350ebef"><path fill="rgba(242,242,248,1)" rx="0" ry="0" d="M7.141195207423493,3.354433736280498L9.699776980895535,12.25990674469449L19.300459057714306,12.25990674469449L21.85904083118635,3.354433736280498C21.918089953913977,3.14701883792668,22.102579270114347,3.003418693742333,22.313632933196686,3.000594865075527C22.52468659627948,2.997771036408267,22.712780139700953,3.136386144349217,22.777106054782053,3.3421503252347975L26.97140403709227,16.760548551981174C27.04879294664147,17.008023319909626,26.96565222677293,17.278566911098324,26.763789287180998,17.43613615951608L14.500118019304978,27L2.2352466661691324,17.43613615951608C2.0338233635141023,17.278249888845266,1.9511808204357521,17.007763884116684,2.0288320015174577,16.760548551981174L6.2231299838276755,3.3421503252347975C6.28720091845355,3.1363129370120078,6.475111163883184,2.9974586263829224,6.6861588325355115,3C6.8972065011878385,3.0025413736170776,7.081873173951635,3.145882145320229,7.141195207423493,3.354433736280498ZZ" style="fill: rgb(242, 242, 248);"/></g></g></g></svg>
